<?xml version="1.0" encoding="UTF-8" standalone="no"?>
<svg
   width="64"
   height="64"
   viewBox="0 0 64 64"
   version="1.1"
   id="svg866"
   sodipodi:docname="WhatsAppButtonGreenLarge.svg"
   inkscape:version="1.1.2 (b8e25be833, 2022-02-05)"
   xmlns:inkscape="http://www.inkscape.org/namespaces/inkscape"
   xmlns:sodipodi="http://sodipodi.sourceforge.net/DTD/sodipodi-0.dtd"
   xmlns="http://www.w3.org/2000/svg"
   xmlns:svg="http://www.w3.org/2000/svg">
  <defs
     id="defs870" />
  <sodipodi:namedview
     id="namedview868"
     pagecolor="#ffffff"
     bordercolor="#666666"
     borderopacity="1.0"
     inkscape:pageshadow="2"
     inkscape:pageopacity="0.0"
     inkscape:pagecheckerboard="0"
     showgrid="false"
     inkscape:zoom="3.8101852"
     inkscape:cx="24.53949"
     inkscape:cy="52.228433"
     inkscape:window-width="1920"
     inkscape:window-height="1009"
     inkscape:window-x="-8"
     inkscape:window-y="-8"
     inkscape:window-maximized="1"
     inkscape:current-layer="svg866" />
  <g
     id="g1020"
     transform="matrix(1.0030316,0,0,1.0033571,-28.176676,-26.173628)">
    <path
       d="m 58.902,26.1055 c 1.052,-0.0671 3.5746,0.0526 4.6688,0.159 8.3197,0.8751 15.9483,5.0273 21.2001,11.539 5.6338,6.8567 7.8085,15.024 6.9439,23.7877 -0.8641,8.3226 -5.0198,15.9544 -11.5417,21.1962 -7.1122,5.8286 -15.2844,7.7723 -24.3027,6.8765 -4.064,-0.4557 -7.1985,-1.61 -10.8368,-3.362 -4.663,1.0998 -9.4657,2.5497 -14.1882,3.4253 C 29.759,89.9287 29.1082,89.6956 28.4287,88.8611 27.8136,86.8245 31.0239,75.6934 31.7163,72.9336 29.575,69.1025 28.3799,64.3649 28.1437,60.0082 27.1425,41.5416 40.6613,27.1174 58.902,26.1055 Z"
       id="path858" />
    <path
       fill="#ffffff"
       d="m 57.9095,29.8503 c 1.0112,-0.156 3.2305,-0.1039 4.24,-0.022 7.5058,0.6418 14.4611,4.2001 19.3734,9.9113 4.8063,5.6739 7.1873,13.0109 6.6288,20.4258 -0.6086,7.518 -4.1804,14.4858 -9.9289,19.369 -6.1834,5.2148 -13.4392,7.2379 -21.4219,6.5556 -4.9441,-0.783 -6.9901,-1.6899 -11.4468,-3.7591 -4.2524,1.0941 -8.7369,2.0705 -12.9367,3.2821 1.1597,-3.8581 2.2972,-9.1359 3.2784,-13.132 -0.454,-0.8913 -0.9017,-1.7798 -1.3269,-2.6867 -7.225,-15.4078 1.2383,-34.0789 17.5641,-38.8231 2.0974,-0.6095 3.7926,-0.8741 5.9765,-1.1209 z"
       id="path860" />
    <path
       d="m 48.6284,39.2618 c 3.4822,-0.2601 6.0637,1.5117 7.9772,4.2497 3.4794,4.9787 0.6777,7.9199 -3.2672,10.6867 2.7914,4.8842 5.6389,7.4963 10.3509,10.4347 2.7581,-3.4435 5.0677,-6.7694 10.1117,-3.6398 4.0628,2.5207 6.5315,6.5311 3.6565,11.1455 -4.252,5.9736 -11.5944,4.9583 -17.3399,1.9953 C 51.958,69.9257 45.4673,63.0066 42.3997,54.2959 40.1953,48.0365 41.9005,41.4678 48.6284,39.2618 Z"
       id="path862" />
    <path
       fill="#ffffff"
       d="m 49.1191,42.9329 c 2.9774,-0.019 4.4786,2.8311 5.6106,5.212 -0.8392,0.9215 -2.1784,2.0755 -3.1303,2.7607 -6.4744,4.6601 7.4869,16.9936 12.2189,17.3351 2.2907,0.1654 4.4083,-3.474 6.101,-4.9902 2.4674,1.2497 3.2786,1.8804 5.0647,3.9902 0.6336,4.3944 -5.0892,6.1693 -8.635,5.209 C 59.2373,70.5586 52.6771,65.1838 48.8212,58.9715 45.6189,53.8123 42.6047,46.9837 49.1191,42.9329 Z"
       id="path864" />
  </g>
</svg>
